<?xml version="1.0" standalone="no"?>
<!DOCTYPE svg PUBLIC "-//W3C//DTD SVG 20010904//EN"
 "http://www.w3.org/TR/2001/REC-SVG-20010904/DTD/svg10.dtd">
<svg version="1.0" xmlns="http://www.w3.org/2000/svg"
 width="432.000000pt" height="432.000000pt" viewBox="0 0 432.000000 432.000000"
 preserveAspectRatio="xMidYMid meet">
<metadata>
Created by potrace 1.14, written by Peter Selinger 2001-2017
</metadata>
<g transform="translate(0.000000,432.000000) scale(0.100000,-0.100000)"
fill="#ffffff" stroke="none">
<path d="M2440 3736 c-108 -23 -198 -115 -218 -223 -32 -181 96 -335 278 -336
163 -1 284 121 283 285 -1 182 -163 312 -343 274z"/>
<path d="M2009 3297 c-25 -7 -58 -23 -75 -34 -16 -12 -169 -163 -341 -335
-340 -341 -352 -357 -353 -461 0 -74 29 -137 84 -181 22 -18 177 -108 343
-200 l302 -168 3 -346 c3 -342 3 -348 26 -384 36 -58 82 -81 151 -76 67 5 111
31 135 81 13 30 16 94 16 496 1 456 1 462 -20 497 -31 48 -61 69 -260 174 -96
50 -178 95 -182 99 -4 3 77 91 181 195 l188 188 53 -84 c134 -209 160 -245
192 -262 30 -16 64 -17 356 -14 l324 3 29 33 c40 45 40 99 0 144 l-29 33 -272
5 -272 5 -160 250 c-88 138 -172 263 -186 279 -53 57 -154 84 -233 63z"/>
<path d="M940 2079 c-97 -10 -218 -49 -300 -96 -98 -57 -235 -200 -287 -298
-64 -123 -87 -217 -87 -360 -1 -144 22 -239 87 -358 79 -145 186 -249 332
-322 118 -59 202 -78 340 -77 333 0 615 207 722 527 24 71 27 96 27 225 1 125
-2 155 -22 220 -110 352 -446 575 -812 539z m228 -154 c172 -41 326 -165 408
-330 187 -379 -59 -832 -481 -883 -195 -24 -368 38 -510 182 -85 86 -128 159
-161 272 -22 78 -23 228 0 313 55 211 234 389 446 445 72 19 219 20 298 1z"/>
<path d="M3155 2071 c-242 -39 -443 -178 -562 -389 -134 -239 -122 -550 32
-782 109 -164 263 -273 455 -321 120 -30 300 -24 415 15 239 81 427 278 497
521 27 96 32 285 9 375 -69 272 -276 486 -542 560 -83 23 -229 33 -304 21z
m280 -162 c190 -55 349 -210 412 -403 21 -66 26 -101 26 -186 2 -178 -54 -312
-183 -441 -131 -130 -281 -187 -469 -176 -165 9 -293 70 -411 194 -261 274
-211 720 104 931 157 105 338 133 521 81z"/>
</g>
</svg>
