<?xml version="1.0" standalone="no"?>
<!DOCTYPE svg PUBLIC "-//W3C//DTD SVG 20010904//EN"
 "http://www.w3.org/TR/2001/REC-SVG-20010904/DTD/svg10.dtd">
<svg version="1.0" xmlns="http://www.w3.org/2000/svg"
 width="432.000000pt" height="432.000000pt" viewBox="0 0 432.000000 432.000000"
 preserveAspectRatio="xMidYMid meet">
<metadata>
Created by potrace 1.14, written by Peter Selinger 2001-2017
</metadata>
<g transform="translate(0.000000,432.000000) scale(0.100000,-0.100000)"
fill="#000000" stroke="none">
<path d="M0 2160 l0 -2160 2160 0 2160 0 0 2160 0 2160 -2160 0 -2160 0 0
-2160z m2592 1569 c20 -5 59 -27 86 -49 131 -103 143 -301 25 -422 -101 -103
-277 -110 -391 -14 -136 116 -122 346 27 449 73 50 151 61 253 36z m-417 -449
c22 -9 52 -30 67 -46 14 -16 98 -141 186 -279 l160 -250 272 -5 272 -5 29 -33
c40 -45 40 -99 0 -144 l-29 -33 -324 -3 c-292 -3 -326 -2 -356 14 -32 17 -58
53 -192 262 l-53 84 -188 -188 c-104 -104 -185 -192 -181 -195 4 -4 86 -49
182 -99 199 -105 229 -126 260 -174 21 -35 21 -41 20 -497 0 -402 -3 -466 -16
-496 -24 -50 -68 -76 -135 -81 -69 -5 -115 18 -151 76 -23 36 -23 42 -26 384
l-3 346 -302 168 c-166 92 -321 182 -343 200 -55 44 -84 107 -84 181 1 104 13
120 353 461 172 172 325 323 341 335 66 47 158 54 241 17z m-970 -1221 c257
-61 466 -260 547 -519 20 -65 23 -95 22 -220 0 -129 -3 -154 -27 -225 -84
-251 -282 -439 -536 -507 -97 -26 -266 -28 -366 -4 -203 48 -389 193 -492 383
-65 119 -88 214 -87 358 0 219 65 376 219 530 102 102 183 154 300 191 141 45
271 49 420 13z m2254 -9 c227 -63 410 -225 503 -445 41 -99 53 -162 53 -290
-1 -215 -66 -375 -215 -526 -97 -98 -186 -155 -305 -195 -115 -39 -295 -45
-415 -15 -145 37 -247 94 -352 197 -160 158 -237 357 -225 584 18 361 285 652
652 711 75 12 221 2 304 -21z"/>
<path d="M870 1924 c-212 -56 -391 -234 -446 -445 -23 -85 -22 -235 0 -313 61
-209 231 -383 426 -436 292 -81 599 57 727 325 147 310 23 669 -284 824 -35
17 -91 38 -125 46 -79 19 -226 18 -298 -1z"/>
<path d="M3180 1930 c-356 -47 -600 -392 -525 -743 32 -154 147 -316 279 -396
186 -112 414 -121 608 -24 141 71 265 224 314 388 28 94 24 248 -9 351 -92
282 -377 463 -667 424z"/>
</g>
</svg>
